<svg width="16" height="16" viewBox="0 0 16 16" fill="none" xmlns="http://www.w3.org/2000/svg">
<g clip-path="url(#clip0_13_38)">
<path d="M13.333 11.5752L13.3116 3.31158L5.04792 3.29014C4.96183 3.27848 4.87423 3.28546 4.79107 3.3106C4.7079 3.33574 4.63111 3.37845 4.56589 3.43585C4.50067 3.49325 4.44854 3.56399 4.41304 3.64328C4.37753 3.72258 4.35948 3.80857 4.3601 3.89545C4.36072 3.98233 4.38 4.06806 4.41663 4.14684C4.45327 4.22562 4.5064 4.29561 4.57243 4.35207C4.63847 4.40853 4.71586 4.45014 4.79938 4.47409C4.88289 4.49804 4.97058 4.50376 5.0565 4.49088L11.2489 4.51661L3.04526 12.7202C2.93152 12.834 2.86763 12.9882 2.86763 13.1491C2.86763 13.3099 2.93152 13.4642 3.04526 13.5779C3.15899 13.6916 3.31325 13.7555 3.47409 13.7555C3.63494 13.7555 3.78919 13.6916 3.90293 13.5779L12.1066 5.37428L12.1323 11.5667C12.1329 11.7276 12.1973 11.8817 12.3115 11.9951C12.4257 12.1085 12.5803 12.1719 12.7412 12.1713C12.9022 12.1708 13.0563 12.1063 13.1697 11.9921C13.2831 11.8779 13.3465 11.7233 13.3459 11.5624L13.333 11.5752Z" fill="#f3f4f6"/>
</g>
<defs>
<clipPath id="clip0_13_38">
<rect width="16" height="16" fill="white"/>
</clipPath>
</defs>
</svg>
