<svg width="40" height="40" viewBox="0 0 40 40" fill="none" xmlns="http://www.w3.org/2000/svg">
<path d="M25.8652 15.2837C23.2602 15.2837 21.1489 17.3949 21.1489 19.9999C21.1489 22.6049 23.2602 24.7162 25.8652 24.7162H26.0177C28.6227 24.7162 30.7339 22.6049 30.7339 19.9999C30.7339 17.3949 28.6227 15.2837 26.0177 15.2837H25.8652ZM26.0177 27.0137H25.8652C21.9914 27.0137 18.8514 23.8737 18.8514 19.9999C18.8514 16.1262 21.9914 12.9862 25.8652 12.9862H26.0177C29.8914 12.9862 33.0314 16.1262 33.0314 19.9999C33.0314 23.8737 29.8914 27.0137 26.0177 27.0137ZM13.9827 27.0137C11.3777 27.0137 9.2652 29.1249 9.2652 31.7299C9.2652 34.3349 11.3764 36.4462 13.9814 36.4462C13.9952 36.4462 14.0102 36.4462 14.0239 36.4462H14.0214C14.0252 36.4462 14.0302 36.4462 14.0352 36.4462C16.6864 36.4462 18.8389 34.3037 18.8527 31.6549V27.0137H13.9827ZM14.0202 38.7449C14.0039 38.7449 13.9839 38.7449 13.9639 38.7449C10.0902 38.7449 6.9502 35.6049 6.9502 31.7312C6.9502 27.8574 10.0902 24.7174 13.9639 24.7174C13.9702 24.7174 13.9764 24.7174 13.9827 24.7174H21.1489V31.6549C21.1339 35.5737 17.9527 38.7449 14.0327 38.7449C14.0289 38.7449 14.0252 38.7449 14.0214 38.7449H14.0202ZM13.9827 15.2837C11.3777 15.2837 9.26645 17.3949 9.26645 19.9999C9.26645 22.6049 11.3777 24.7174 13.9827 24.7174L18.8514 24.7162V15.2849L13.9827 15.2837ZM21.1477 27.0137H13.9827C10.1089 27.0137 6.96895 23.8737 6.96895 19.9999C6.96895 16.1262 10.1089 12.9862 13.9827 12.9862H21.1489V27.0137H21.1477ZM13.9827 3.55366C11.3777 3.55366 9.26645 5.66491 9.26645 8.26991C9.26645 10.8749 11.3777 12.9862 13.9827 12.9862H18.8514V3.55241L13.9827 3.55366ZM21.1477 15.2837H13.9827C10.1089 15.2837 6.9677 12.1437 6.9677 8.26866C6.9677 4.39366 10.1077 1.25366 13.9827 1.25366H21.1489V15.2824L21.1477 15.2837ZM21.1477 12.9862H26.0177C28.6177 12.9799 30.7214 10.8712 30.7214 8.26991C30.7214 5.66866 28.6164 3.55991 26.0164 3.55366H21.1477V12.9862ZM26.0177 15.2837L18.8514 15.2849V1.25491H26.0177C29.8914 1.25491 33.0327 4.39491 33.0327 8.26991C33.0327 12.1449 29.8927 15.2837 26.0177 15.2837Z" fill="#F3F4F6"/>
</svg>
