<svg width="96" height="40" viewBox="0 0 96 40" fill="none" xmlns="http://www.w3.org/2000/svg">
<g clip-path="url(#clip0_65_40)">
<path d="M57.3938 13.6147C55.294 13.6147 53.7301 14.6457 53.7301 17.1271C53.7301 18.9968 54.7607 20.2946 57.2806 20.2946C59.4164 20.2946 60.8671 19.0362 60.8671 17.0499C60.8671 14.7989 59.569 13.6147 57.3938 13.6147ZM53.1955 31.1355C52.6987 31.7454 52.2035 32.3933 52.2035 33.158C52.2035 34.6835 54.149 35.1426 56.8215 35.1426C59.0353 35.1426 62.0507 34.9875 62.0507 32.9293C62.0507 31.706 60.6 31.6302 58.7669 31.5153L53.1955 31.1355ZM64.493 13.73C65.1789 14.6081 65.9051 15.8296 65.9051 17.5852C65.9051 21.8217 62.5844 24.3022 57.7766 24.3022C56.5539 24.3022 55.447 24.1499 54.7607 23.9594L53.5008 25.9819L57.2407 26.2104C63.8444 26.6311 67.7361 26.8223 67.7361 31.8967C67.7361 36.2869 63.8821 38.7666 57.2407 38.7666C50.3327 38.7666 47.6992 37.0107 47.6992 33.996C47.6992 32.2778 48.4627 31.3639 49.7985 30.1025C48.5386 29.5699 48.1193 28.6163 48.1193 27.5853C48.1193 26.7451 48.5386 25.9819 49.2267 25.2562C49.9134 24.5318 50.6765 23.8056 51.5926 22.9662C49.7227 22.0504 48.3101 20.0656 48.3101 17.2407C48.3101 12.852 51.2111 9.83785 57.0495 9.83785C58.691 9.83785 59.6839 9.98893 60.5618 10.2193H68.0049V13.4627L64.493 13.73Z" fill="#F3F4F6"/>
<path d="M74.7199 6.79459C72.5438 6.79459 71.2847 5.53394 71.2847 3.35764C71.2847 1.18407 72.5438 -1.40733e-05 74.7199 -1.40733e-05C76.9337 -1.40733e-05 78.1932 1.18407 78.1932 3.35764C78.1932 5.53394 76.9337 6.79459 74.7199 6.79459ZM69.7954 29.7312V26.7175L71.7426 26.4512C72.2772 26.3737 72.353 26.2601 72.353 25.6863V14.4652C72.353 14.0462 72.239 13.7779 71.8561 13.6644L69.7954 12.9386L70.2151 9.84816H78.1164V25.6863C78.1164 26.298 78.1533 26.3737 78.7273 26.4512L80.674 26.7175V29.7312H69.7954Z" fill="#F3F4F6"/>
<path d="M95.7669 28.2515C94.125 29.052 91.7209 29.7773 89.5444 29.7773C85.0028 29.7773 83.2859 27.9471 83.2859 23.6324V13.6333C83.2859 13.4048 83.2859 13.2514 82.9793 13.2514H80.3081V9.85475C83.6678 9.47207 85.0028 7.79239 85.4225 3.63236H89.0488V9.05391C89.0488 9.32011 89.0488 9.43541 89.3545 9.43541H94.7355V13.2514H89.0488V22.3728C89.0488 24.6249 89.5838 25.502 91.6437 25.502C92.7138 25.502 93.8193 25.2356 94.7355 24.8918L95.7669 28.2515Z" fill="#F3F4F6"/>
<path d="M39.2154 18.2355L21.7639 0.785178C20.7597 -0.219887 19.1297 -0.219887 18.1242 0.785178L14.5005 4.40917L19.0972 9.00608C20.1658 8.64528 21.3907 8.88718 22.2421 9.73876C23.0979 10.5956 23.3381 11.8309 22.9682 12.9031L27.3986 17.3334C28.4705 16.964 29.7071 17.2026 30.563 18.06C31.7596 19.2563 31.7596 21.1946 30.563 22.3912C29.3663 23.5882 27.4279 23.5882 26.2306 22.3912C25.3309 21.4908 25.1084 20.1688 25.5641 19.0603L21.4323 14.9284L21.432 25.8013C21.7237 25.9457 21.999 26.1384 22.2421 26.3804C23.4383 27.5765 23.4383 29.5145 22.2421 30.7125C21.0455 31.9086 19.1063 31.9086 17.9109 30.7125C16.7145 29.5145 16.7145 27.5765 17.9109 26.3804C18.2066 26.0853 18.5487 25.8619 18.9137 25.7122V14.7384C18.5487 14.5891 18.2071 14.3673 17.9109 14.0701C17.0047 13.1646 16.7864 11.8345 17.2512 10.7217L12.7199 6.18959L0.754054 18.1548C-0.251351 19.1607 -0.251351 20.7907 0.754054 21.7959L18.2054 39.2462C19.2101 40.2513 20.8396 40.2513 21.8457 39.2462L39.2154 21.8768C40.2205 20.8712 40.2205 19.2407 39.2154 18.2355Z" fill="#F3F4F6"/>
</g>
<defs>
<clipPath id="clip0_65_40">
<rect width="95.7658" height="40" fill="white"/>
</clipPath>
</defs>
</svg>
