<svg width="40" height="40" viewBox="0 0 40 40" fill="none" xmlns="http://www.w3.org/2000/svg">
<path d="M8.4898 0.0390625H10.2892V1.81687H11.9352V0.0390625H13.7347V5.42258H11.9354V3.61977H10.2893V5.42258H8.48996V0.0390625H8.4898ZM16.1009 1.82437H14.5169V0.0390625H19.4852V1.82437H17.9004V5.42258H16.1011V1.82437H16.1009ZM20.2736 0.0390625H22.1502L23.3042 1.9307L24.4572 0.0390625H26.334V5.42258H24.542V2.7543L23.3041 4.66836H23.2732L22.0345 2.7543V5.42258H20.2736V0.0390625ZM27.2297 0.0390625H29.0296V3.6432H31.5601V5.42258H27.2297V0.0390625ZM5.8584 7.88477L8.4323 36.7545L19.9826 39.9608L31.565 36.7499L34.1416 7.88469L5.8584 7.88477ZM28.7726 14.7359L28.6114 16.5309L28.5407 17.3269H28.529H20H19.9877H14.9911L15.3147 20.9524H19.9877H20H27.2641H28.2183L28.1319 21.9034L27.2999 31.2252L27.2466 31.823L20 33.8316V33.8322L19.9838 33.8368L12.7307 31.8232L12.2346 26.2637H13.8729H15.789L16.0411 29.0877L19.9844 30.1527L19.9877 30.1516V30.1513L23.937 29.0857L24.3477 24.4934H20H19.9877H12.0764L11.2062 14.7359L11.1214 13.7861H19.9877H20H28.8574L28.7726 14.7359Z" fill="#F3F4F6"/>
</svg>
