<svg width="197" height="40" viewBox="0 0 197 40" fill="none" xmlns="http://www.w3.org/2000/svg">
<g clip-path="url(#clip0_65_18)">
<path d="M130.959 0.0166016H165.273V6.35007H151.661V39.6696H144.855V6.35007H130.959V0.0166016Z" fill="#F3F4F6"/>
<path d="M74.5258 0.0166016V6.35007H47.0208V16.5387H69.1403V22.8721H47.0208V33.3361H74.5258V39.6696H40.2148V6.35007H40.2119V0.0166016H74.5258Z" fill="#F3F4F6"/>
<path d="M91.6599 0.032959H82.7529L114.656 39.6859H123.589L107.635 19.8731L123.563 0.0632117L114.656 0.0769767L103.176 14.3347L91.6599 0.032959Z" fill="#F3F4F6"/>
<path d="M100.8 28.3575L96.3395 22.8115L82.7275 39.7164H91.66L100.8 28.3575Z" fill="#F3F4F6"/>
<path fill-rule="evenodd" clip-rule="evenodd" d="M40.4535 39.6695L8.50755 0H0V39.653H6.80605V8.4758L31.9034 39.6695H40.4535Z" fill="#F3F4F6"/>
<path d="M166.804 39.4272C166.305 39.4272 165.881 39.2546 165.526 38.9092C165.171 38.5639 164.996 38.1458 165 37.6505C164.996 37.1688 165.171 36.7552 165.526 36.4099C165.881 36.0645 166.305 35.8918 166.804 35.8918C167.283 35.8918 167.703 36.0645 168.058 36.4099C168.418 36.7552 168.597 37.1688 168.602 37.6505C168.597 37.9776 168.514 38.2775 168.348 38.5456C168.178 38.8183 167.961 39.0319 167.689 39.1864C167.421 39.3455 167.126 39.4272 166.804 39.4272Z" fill="#F3F4F6"/>
<path d="M178.42 22.7227H181.436V34.3423C181.432 35.4102 181.201 36.3236 180.749 37.0916C180.293 37.8596 179.661 38.4457 178.849 38.8593C178.042 39.2682 177.097 39.4773 176.022 39.4773C175.04 39.4773 174.159 39.3001 173.375 38.9547C172.591 38.6094 171.969 38.0913 171.512 37.4097C171.051 36.728 170.825 35.8783 170.825 34.8604H173.846C173.85 35.3057 173.952 35.6919 174.145 36.0146C174.339 36.3372 174.606 36.5826 174.948 36.7553C175.293 36.928 175.69 37.0143 176.137 37.0143C176.622 37.0143 177.037 36.9143 177.373 36.7098C177.71 36.5099 177.968 36.21 178.148 35.8101C178.323 35.4148 178.416 34.924 178.42 34.3423V22.7227Z" fill="#F3F4F6"/>
<path d="M193.845 27.2669C193.772 26.5625 193.449 26.0127 192.886 25.6219C192.319 25.2266 191.586 25.0312 190.686 25.0312C190.055 25.0312 189.511 25.1266 189.059 25.3129C188.607 25.5038 188.256 25.7582 188.016 26.0809C187.777 26.4035 187.657 26.7716 187.647 27.1852C187.647 27.5305 187.73 27.8304 187.892 28.0804C188.053 28.3348 188.27 28.5484 188.551 28.7211C188.828 28.8983 189.137 29.0437 189.474 29.1618C189.815 29.28 190.156 29.38 190.497 29.4618L192.07 29.848C192.702 29.9934 193.315 30.1889 193.901 30.4388C194.486 30.6842 195.017 30.9978 195.482 31.3749C195.948 31.7521 196.317 32.2065 196.589 32.7382C196.861 33.2699 197 33.8924 197 34.6104C197 35.5783 196.751 36.4281 196.248 37.1642C195.745 37.8958 195.021 38.4684 194.071 38.882C193.126 39.291 191.982 39.5 190.636 39.5C189.335 39.5 188.201 39.3001 187.246 38.9002C186.287 38.5048 185.54 37.9231 185 37.1597C184.461 36.3963 184.17 35.4647 184.129 34.3695H187.117C187.159 34.9421 187.343 35.4193 187.657 35.8055C187.975 36.1872 188.39 36.469 188.897 36.6599C189.409 36.8462 189.981 36.9416 190.613 36.9416C191.272 36.9416 191.853 36.8416 192.356 36.6462C192.854 36.4508 193.246 36.1782 193.527 35.8237C193.813 35.4738 193.956 35.0603 193.961 34.5877C193.956 34.156 193.827 33.797 193.578 33.5152C193.324 33.2335 192.974 32.9972 192.526 32.8064C192.075 32.6155 191.549 32.4428 190.949 32.2929L189.04 31.8111C187.661 31.4612 186.568 30.9296 185.77 30.2162C184.968 29.5027 184.571 28.5575 184.571 27.3715C184.571 26.399 184.839 25.5447 185.379 24.813C185.913 24.0814 186.647 23.5134 187.574 23.1089C188.505 22.7 189.557 22.5 190.728 22.5C191.918 22.5 192.96 22.7 193.859 23.1089C194.758 23.5134 195.464 24.0769 195.976 24.7948C196.488 25.5128 196.755 26.3353 196.769 27.2669H193.845Z" fill="#F3F4F6"/>
</g>
<defs>
<clipPath id="clip0_65_18">
<rect width="197" height="40" fill="white"/>
</clipPath>
</defs>
</svg>
