<svg width="40" height="40" viewBox="0 0 40 40" fill="none" xmlns="http://www.w3.org/2000/svg">
<path d="M36.8009 18.3682C36.7037 18.3682 36.6092 18.3882 36.5255 18.4356L33.878 19.9645C33.7067 20.0632 33.6025 20.2496 33.6025 20.448V23.5003C33.6025 23.6985 33.7067 23.8846 33.878 23.9836L34.5694 24.3828C34.9054 24.5483 35.0292 24.5457 35.1821 24.5457C35.6794 24.5457 35.9634 24.2439 35.9634 23.7195V20.7065C35.9634 20.6639 35.9265 20.6335 35.8847 20.6335H35.5531C35.5106 20.6335 35.4744 20.6639 35.4744 20.7065V23.7195C35.4744 23.9519 35.2322 24.1857 34.8393 23.9893L34.1197 23.5677C34.0943 23.5539 34.0747 23.5294 34.0747 23.5003V20.4479C34.0747 20.419 34.094 20.3896 34.1197 20.3749L36.7616 18.8517C36.7735 18.8447 36.7871 18.841 36.8009 18.841C36.8148 18.841 36.8283 18.8447 36.8403 18.8517L39.4822 20.375C39.5074 20.3901 39.5272 20.4182 39.5272 20.4481V23.5004C39.5272 23.5295 39.5125 23.5593 39.4879 23.5734L36.8403 25.0967C36.8176 25.1102 36.7864 25.1102 36.7616 25.0967L36.0814 24.692C36.0711 24.6864 36.0595 24.6834 36.0477 24.6834C36.036 24.6834 36.0244 24.6864 36.014 24.692C35.8263 24.7984 35.791 24.8107 35.6149 24.8718C35.5715 24.887 35.5057 24.9105 35.6374 24.9843L36.5255 25.507C36.6092 25.5553 36.7043 25.5805 36.801 25.5801C36.8976 25.5807 36.9927 25.5555 37.0764 25.5071L39.7239 23.9837C39.8953 23.8841 39.9993 23.6986 39.9993 23.5004V20.448C39.9993 20.2497 39.8953 20.0636 39.7239 19.9646L37.0764 18.4357C36.9934 18.3883 36.8982 18.3682 36.801 18.3682L36.8009 18.3682Z" fill="#F3F4F6"/>
<path d="M37.5091 20.5491C36.7552 20.5491 36.3062 20.8699 36.3062 21.4035C36.3062 21.9823 36.7519 22.1413 37.4754 22.2129C38.3411 22.2977 38.4085 22.4248 38.4085 22.5952C38.4085 22.8907 38.1729 23.0167 37.616 23.0167C36.9162 23.0167 36.7625 22.842 36.711 22.494C36.7049 22.4567 36.6761 22.4265 36.6379 22.4265H36.295C36.2528 22.4265 36.2163 22.4629 36.2163 22.5052C36.2163 22.9508 36.4587 23.4777 37.616 23.4777C38.4537 23.4777 38.9369 23.1488 38.9369 22.5727C38.9369 22.0016 38.5466 21.8482 37.734 21.7408C36.9129 21.6321 36.8346 21.5789 36.8346 21.3867C36.8346 21.2279 36.901 21.0156 37.5091 21.0156C38.0524 21.0156 38.2532 21.1327 38.3354 21.4991C38.3426 21.5334 38.3729 21.5609 38.4085 21.5609H38.7515C38.7726 21.5609 38.793 21.5479 38.8076 21.5327C38.822 21.5166 38.8322 21.4984 38.8301 21.4766C38.777 20.8458 38.3564 20.5491 37.5091 20.5491Z" fill="#F3F4F6"/>
<path d="M21.236 14.3658C21.2064 14.3658 21.1773 14.3735 21.1516 14.3882C21.126 14.4031 21.1048 14.4245 21.0901 14.4501C21.0753 14.4757 21.0674 14.5048 21.0673 14.5344V18.8345C21.0673 18.8767 21.0477 18.9145 21.0111 18.9357C20.9932 18.9461 20.9728 18.9516 20.9521 18.9516C20.9314 18.9516 20.911 18.9461 20.8931 18.9357L20.1904 18.531C20.1392 18.5013 20.081 18.4857 20.0218 18.4857C19.9626 18.4857 19.9044 18.5013 19.8531 18.531L17.0482 20.1498C16.9434 20.2104 16.8796 20.3267 16.8796 20.4478V23.6855C16.8796 23.8065 16.9435 23.9172 17.0482 23.9778L19.8531 25.5967C19.9044 25.6264 19.9626 25.6421 20.0218 25.6421C20.081 25.6421 20.1392 25.6264 20.1904 25.5967L22.9953 23.9778C23.0467 23.9482 23.0893 23.9056 23.1189 23.8543C23.1486 23.803 23.1641 23.7448 23.164 23.6855V15.6136C23.1639 15.553 23.1478 15.4935 23.1172 15.4411C23.0865 15.3888 23.0426 15.3455 22.9898 15.3157L21.3203 14.3826C21.2941 14.3679 21.265 14.3654 21.236 14.3658ZM3.19221 18.4073C3.13877 18.4094 3.08846 18.4188 3.04049 18.4466L0.23549 20.0655C0.184108 20.095 0.141448 20.1376 0.111839 20.189C0.0822294 20.2403 0.0667241 20.2985 0.0668959 20.3578L0.0725209 24.703C0.0725209 24.7634 0.103693 24.8196 0.156818 24.8491C0.182287 24.8644 0.211441 24.8725 0.241154 24.8725C0.270867 24.8725 0.30002 24.8644 0.32549 24.8491L1.98932 23.8936C2.09471 23.8309 2.16354 23.722 2.16354 23.6012V21.572C2.16354 21.4509 2.22721 21.3398 2.33221 21.2797L3.04041 20.8694C3.09162 20.8396 3.14985 20.824 3.20908 20.8244C3.2669 20.8244 3.32627 20.8388 3.37768 20.8694L4.08596 21.2797C4.13739 21.3092 4.18009 21.3517 4.20972 21.4031C4.23934 21.4544 4.25484 21.5127 4.25463 21.572V23.6011C4.25463 23.7219 4.32416 23.8316 4.42885 23.8935L6.09268 24.8491C6.11815 24.8644 6.1473 24.8725 6.17701 24.8725C6.20673 24.8725 6.23588 24.8644 6.26135 24.8491C6.28699 24.8343 6.30827 24.813 6.32308 24.7873C6.33789 24.7617 6.3457 24.7326 6.34572 24.7029L6.35119 20.3578C6.35153 20.2985 6.33609 20.2402 6.30646 20.1888C6.27684 20.1375 6.23409 20.0949 6.1826 20.0655L3.37768 18.4466C3.33026 18.4188 3.27979 18.4095 3.22596 18.4073H3.19221ZM28.3972 18.4466C28.3386 18.4466 28.2812 18.4615 28.2286 18.4916L25.4237 20.1105C25.3723 20.1401 25.3297 20.1827 25.3001 20.234C25.2704 20.2853 25.2549 20.3435 25.255 20.4028V23.6405C25.255 23.7623 25.3236 23.8726 25.4292 23.9329L28.2117 25.518C28.3145 25.5766 28.4399 25.5811 28.5434 25.5235L30.2297 24.5848C30.2832 24.5551 30.3194 24.4997 30.3196 24.4387C30.3199 24.4091 30.3123 24.3798 30.2974 24.3541C30.2826 24.3284 30.2612 24.3072 30.2353 24.2926L27.4135 22.6736C27.3607 22.6435 27.3236 22.5825 27.3236 22.5219V21.5101C27.3236 21.4496 27.3611 21.3941 27.4135 21.364L28.2904 20.858C28.316 20.8432 28.3451 20.8354 28.3747 20.8354C28.4044 20.8354 28.4335 20.8432 28.4591 20.858L29.3359 21.364C29.3616 21.3787 29.3829 21.4 29.3977 21.4257C29.4125 21.4513 29.4203 21.4804 29.4203 21.5101V22.3083C29.4202 22.3379 29.4279 22.367 29.4427 22.3927C29.4575 22.4183 29.4789 22.4396 29.5046 22.4544C29.5571 22.4847 29.6207 22.4848 29.6731 22.4544L31.3539 21.4765C31.4052 21.4468 31.4478 21.4042 31.4774 21.3529C31.507 21.3015 31.5226 21.2434 31.5226 21.1841V20.4029C31.5226 20.2822 31.4585 20.1711 31.3539 20.1105L28.5659 18.4916C28.5146 18.462 28.4564 18.4464 28.3972 18.4466ZM20.0105 20.8637C20.0252 20.8637 20.0424 20.8673 20.0555 20.8749L21.0167 21.4314C21.0428 21.4465 21.0617 21.4744 21.0617 21.5044V22.6174C21.0617 22.6476 21.043 22.6754 21.0167 22.6905L20.0555 23.247C20.0427 23.2543 20.0281 23.2582 20.0133 23.2582C19.9986 23.2582 19.984 23.2543 19.9712 23.247L19.01 22.6905C18.9838 22.6754 18.965 22.6476 18.965 22.6174V21.5044C18.965 21.4743 18.9839 21.4466 19.01 21.4314L19.9712 20.875C19.983 20.8676 19.9967 20.8638 20.0106 20.8638L20.0105 20.8637Z" fill="#F3F4F6"/>
<path d="M11.6183 18.4299C11.5598 18.4299 11.502 18.4448 11.4497 18.4749L8.64475 20.0882C8.53982 20.1486 8.47607 20.2652 8.47607 20.3861V23.6238C8.47607 23.7449 8.5399 23.8556 8.64475 23.9162L11.4497 25.535C11.5009 25.5648 11.5591 25.5804 11.6183 25.5804C11.6775 25.5804 11.7357 25.5648 11.7869 25.535L14.5919 23.9162C14.6432 23.8866 14.6858 23.844 14.7154 23.7927C14.745 23.7413 14.7606 23.6831 14.7604 23.6238V20.3861C14.7604 20.265 14.6967 20.1486 14.5919 20.0882L11.7869 18.4749C11.7357 18.4453 11.6775 18.4298 11.6183 18.4299ZM28.3916 21.3192C28.3804 21.3192 28.368 21.3192 28.3579 21.3249L27.8183 21.6396C27.8083 21.6452 27.7999 21.6534 27.7939 21.6632C27.788 21.6731 27.7848 21.6844 27.7846 21.6959V22.3142C27.7846 22.3374 27.798 22.3588 27.8183 22.3704L28.3579 22.6795C28.3782 22.6913 28.3997 22.6913 28.4197 22.6795L28.9594 22.3703C28.9694 22.3647 28.9778 22.3566 28.9837 22.3467C28.9896 22.3369 28.9928 22.3256 28.9931 22.3142V21.6958C28.9928 21.6843 28.9896 21.6731 28.9837 21.6632C28.9778 21.6534 28.9694 21.6452 28.9594 21.6396L28.4197 21.3248C28.4097 21.3189 28.4029 21.3192 28.3916 21.3192Z" fill="#F3F4F6"/>
</svg>
