<svg width="45" height="40" viewBox="0 0 45 40" fill="none" xmlns="http://www.w3.org/2000/svg">
<g clip-path="url(#clip0_65_27)">
<path d="M22.4793 24.0072C24.6924 24.0072 26.4864 22.2131 26.4864 20.0001C26.4864 17.787 24.6924 15.9929 22.4793 15.9929C20.2662 15.9929 18.4722 17.787 18.4722 20.0001C18.4722 22.2131 20.2662 24.0072 22.4793 24.0072Z" fill="#F3F4F6"/>
<path d="M22.4793 28.2098C34.3543 28.2098 43.981 24.5341 43.981 20C43.981 15.4659 34.3543 11.7903 22.4793 11.7903C10.6042 11.7903 0.977539 15.4659 0.977539 20C0.977539 24.5341 10.6042 28.2098 22.4793 28.2098Z" stroke="#F3F4F6"/>
<path d="M15.3695 24.105C21.3071 34.3891 29.3036 40.8882 33.2302 38.6211C37.1569 36.3541 35.5268 26.1793 29.5892 15.8952C23.6517 5.61109 15.6552 -0.888016 11.7285 1.37904C7.80187 3.6461 9.432 13.8208 15.3695 24.105Z" stroke="#F3F4F6"/>
<path d="M15.3693 15.8952C9.43175 26.1793 7.80161 36.354 11.7283 38.6211C15.6549 40.8881 23.6514 34.389 29.589 24.1049C35.5265 13.8208 37.1567 3.64607 33.23 1.37901C29.3033 -0.888046 21.3068 5.61106 15.3693 15.8952Z" stroke="#F3F4F6"/>
</g>
<defs>
<clipPath id="clip0_65_27">
<rect width="44.9581" height="40" fill="white"/>
</clipPath>
</defs>
</svg>
