<svg width="66" height="40" viewBox="0 0 66 40" fill="none" xmlns="http://www.w3.org/2000/svg">
<g clip-path="url(#clip0_65_6)">
<mask id="mask0_65_6" style="mask-type:luminance" maskUnits="userSpaceOnUse" x="0" y="0" width="66" height="40">
<path d="M0 0H65.4545V39.2727H0V0Z" fill="white"/>
</mask>
<g mask="url(#mask0_65_6)">
<path fill-rule="evenodd" clip-rule="evenodd" d="M32.7273 0C24 0 18.5455 4.36364 16.3636 13.0909C19.6364 8.72727 23.4545 7.09091 27.8182 8.18182C30.3079 8.80364 32.0873 10.6109 34.057 12.6097C37.2655 15.8667 40.9794 19.6364 49.0909 19.6364C57.8182 19.6364 63.2727 15.2727 65.4545 6.54545C62.1818 10.9091 58.3636 12.5455 54 11.4545C51.5103 10.8327 49.7309 9.02545 47.7612 7.02667C44.5527 3.7697 40.8388 0 32.7273 0ZM16.3636 19.6364C7.63636 19.6364 2.18182 24 0 32.7273C3.27273 28.3636 7.09091 26.7273 11.4545 27.8182C13.9442 28.4412 15.7236 30.2473 17.6933 32.2461C20.9018 35.503 24.6158 39.2727 32.7273 39.2727C41.4545 39.2727 46.9091 34.9091 49.0909 26.1818C45.8182 30.5455 42 32.1818 37.6364 31.0909C35.1467 30.4691 33.3673 28.6618 31.3976 26.663C28.1891 23.4061 24.4751 19.6364 16.3636 19.6364Z" fill="#F3F4F6"/>
</g>
</g>
<defs>
<clipPath id="clip0_65_6">
<rect width="65.4545" height="40" fill="white"/>
</clipPath>
</defs>
</svg>
